<mxfile host="app.diagrams.net" modified="2023-08-16T14:41:46.018Z" agent="Mozilla/5.0 (Windows NT 10.0; Win64; x64) AppleWebKit/537.36 (KHTML, like Gecko) Chrome/115.0.0.0 Safari/537.36" etag="Elvj0uqZjjy1BBdRZt-L" version="21.6.8" type="github">
  <diagram name="第 1 页" id="gX6E3SkBdXSs6gSl7hSy">
    <mxGraphModel dx="1434" dy="750" grid="1" gridSize="10" guides="1" tooltips="1" connect="1" arrows="1" fold="1" page="1" pageScale="1" pageWidth="827" pageHeight="1169" math="0" shadow="0">
      <root>
        <mxCell id="0" />
        <mxCell id="1" parent="0" />
        <mxCell id="tYzVT7cfikUMVf0TiaB3-19" value="" style="rounded=0;whiteSpace=wrap;html=1;dashed=1;" parent="1" vertex="1">
          <mxGeometry x="160" y="140" width="470" height="380" as="geometry" />
        </mxCell>
        <mxCell id="tYzVT7cfikUMVf0TiaB3-7" value="" style="rounded=0;whiteSpace=wrap;html=1;fillColor=#d5e8d4;strokeColor=#82b366;" parent="1" vertex="1">
          <mxGeometry x="190" y="180" width="420" height="100" as="geometry" />
        </mxCell>
        <mxCell id="tYzVT7cfikUMVf0TiaB3-13" style="edgeStyle=orthogonalEdgeStyle;rounded=0;orthogonalLoop=1;jettySize=auto;html=1;exitX=0.5;exitY=1;exitDx=0;exitDy=0;entryX=0.5;entryY=0;entryDx=0;entryDy=0;" parent="1" source="tYzVT7cfikUMVf0TiaB3-1" target="tYzVT7cfikUMVf0TiaB3-3" edge="1">
          <mxGeometry relative="1" as="geometry" />
        </mxCell>
        <mxCell id="tYzVT7cfikUMVf0TiaB3-1" value="&lt;font style=&quot;font-size: 14px;&quot;&gt;batch&lt;/font&gt;" style="rounded=0;whiteSpace=wrap;html=1;fillColor=#e1d5e7;strokeColor=#9673a6;" parent="1" vertex="1">
          <mxGeometry x="220" y="210" width="110" height="50" as="geometry" />
        </mxCell>
        <mxCell id="tYzVT7cfikUMVf0TiaB3-14" style="edgeStyle=orthogonalEdgeStyle;rounded=0;orthogonalLoop=1;jettySize=auto;html=1;exitX=0.5;exitY=1;exitDx=0;exitDy=0;entryX=0.5;entryY=0;entryDx=0;entryDy=0;" parent="1" source="tYzVT7cfikUMVf0TiaB3-2" target="tYzVT7cfikUMVf0TiaB3-4" edge="1">
          <mxGeometry relative="1" as="geometry" />
        </mxCell>
        <mxCell id="tYzVT7cfikUMVf0TiaB3-2" value="&lt;font style=&quot;font-size: 14px;&quot;&gt;operate&lt;/font&gt;" style="rounded=0;whiteSpace=wrap;html=1;fillColor=#e1d5e7;strokeColor=#9673a6;" parent="1" vertex="1">
          <mxGeometry x="475" y="210" width="110" height="50" as="geometry" />
        </mxCell>
        <mxCell id="tYzVT7cfikUMVf0TiaB3-15" style="edgeStyle=orthogonalEdgeStyle;rounded=0;orthogonalLoop=1;jettySize=auto;html=1;exitX=0.5;exitY=1;exitDx=0;exitDy=0;entryX=0.5;entryY=0;entryDx=0;entryDy=0;entryPerimeter=0;" parent="1" source="tYzVT7cfikUMVf0TiaB3-3" target="tYzVT7cfikUMVf0TiaB3-6" edge="1">
          <mxGeometry relative="1" as="geometry" />
        </mxCell>
        <mxCell id="tYzVT7cfikUMVf0TiaB3-17" value="记录任务总数" style="edgeLabel;html=1;align=center;verticalAlign=middle;resizable=0;points=[];" parent="tYzVT7cfikUMVf0TiaB3-15" vertex="1" connectable="0">
          <mxGeometry x="-0.201" y="-3" relative="1" as="geometry">
            <mxPoint x="14" y="2" as="offset" />
          </mxGeometry>
        </mxCell>
        <mxCell id="tYzVT7cfikUMVf0TiaB3-24" style="edgeStyle=orthogonalEdgeStyle;rounded=0;orthogonalLoop=1;jettySize=auto;html=1;exitX=1;exitY=0.5;exitDx=0;exitDy=0;dashed=1;" parent="1" source="tYzVT7cfikUMVf0TiaB3-3" target="tYzVT7cfikUMVf0TiaB3-5" edge="1">
          <mxGeometry relative="1" as="geometry" />
        </mxCell>
        <mxCell id="tYzVT7cfikUMVf0TiaB3-3" value="&lt;font style=&quot;font-size: 14px;&quot;&gt;producer&lt;/font&gt;" style="rounded=0;whiteSpace=wrap;html=1;fillColor=#dae8fc;strokeColor=#6c8ebf;" parent="1" vertex="1">
          <mxGeometry x="222.5" y="320" width="105" height="50" as="geometry" />
        </mxCell>
        <mxCell id="tYzVT7cfikUMVf0TiaB3-16" style="edgeStyle=orthogonalEdgeStyle;rounded=0;orthogonalLoop=1;jettySize=auto;html=1;exitX=0.5;exitY=1;exitDx=0;exitDy=0;entryX=0.5;entryY=0;entryDx=0;entryDy=0;entryPerimeter=0;" parent="1" source="tYzVT7cfikUMVf0TiaB3-4" target="tYzVT7cfikUMVf0TiaB3-6" edge="1">
          <mxGeometry relative="1" as="geometry" />
        </mxCell>
        <mxCell id="tYzVT7cfikUMVf0TiaB3-18" value="记录成功失败数" style="edgeLabel;html=1;align=center;verticalAlign=middle;resizable=0;points=[];" parent="tYzVT7cfikUMVf0TiaB3-16" vertex="1" connectable="0">
          <mxGeometry x="-0.0172" y="1" relative="1" as="geometry">
            <mxPoint x="3" y="4" as="offset" />
          </mxGeometry>
        </mxCell>
        <mxCell id="tYzVT7cfikUMVf0TiaB3-4" value="&lt;font style=&quot;font-size: 14px;&quot;&gt;consumer&lt;/font&gt;" style="rounded=0;whiteSpace=wrap;html=1;fillColor=#dae8fc;strokeColor=#6c8ebf;" parent="1" vertex="1">
          <mxGeometry x="477.5" y="320" width="105" height="50" as="geometry" />
        </mxCell>
        <mxCell id="tYzVT7cfikUMVf0TiaB3-26" style="edgeStyle=orthogonalEdgeStyle;rounded=0;orthogonalLoop=1;jettySize=auto;html=1;exitX=1;exitY=0.5;exitDx=0;exitDy=0;dashed=1;" parent="1" source="tYzVT7cfikUMVf0TiaB3-5" target="tYzVT7cfikUMVf0TiaB3-4" edge="1">
          <mxGeometry relative="1" as="geometry" />
        </mxCell>
        <mxCell id="tYzVT7cfikUMVf0TiaB3-5" value="&lt;b&gt;&lt;font style=&quot;font-size: 14px;&quot;&gt;MQ&lt;/font&gt;&lt;/b&gt;" style="ellipse;whiteSpace=wrap;html=1;aspect=fixed;fillColor=#f8cecc;strokeColor=#b85450;" parent="1" vertex="1">
          <mxGeometry x="370.63" y="315.63" width="58.75" height="58.75" as="geometry" />
        </mxCell>
        <mxCell id="tYzVT7cfikUMVf0TiaB3-6" value="&lt;b&gt;&lt;font style=&quot;font-size: 14px;&quot;&gt;redis&lt;/font&gt;&lt;/b&gt;" style="strokeWidth=2;html=1;shape=mxgraph.flowchart.direct_data;whiteSpace=wrap;fillColor=#f8cecc;strokeColor=#b85450;" parent="1" vertex="1">
          <mxGeometry x="215" y="460" width="370" height="40" as="geometry" />
        </mxCell>
        <mxCell id="tYzVT7cfikUMVf0TiaB3-8" value="&lt;b&gt;&lt;font style=&quot;font-size: 14px;&quot;&gt;BatchService&lt;/font&gt;&lt;/b&gt;" style="text;html=1;strokeColor=none;fillColor=none;align=center;verticalAlign=middle;whiteSpace=wrap;rounded=0;" parent="1" vertex="1">
          <mxGeometry x="355" y="180" width="90" height="30" as="geometry" />
        </mxCell>
        <mxCell id="tYzVT7cfikUMVf0TiaB3-11" style="edgeStyle=orthogonalEdgeStyle;rounded=0;orthogonalLoop=1;jettySize=auto;html=1;exitX=0.5;exitY=1;exitDx=0;exitDy=0;" parent="1" source="tYzVT7cfikUMVf0TiaB3-9" target="tYzVT7cfikUMVf0TiaB3-1" edge="1">
          <mxGeometry relative="1" as="geometry" />
        </mxCell>
        <mxCell id="tYzVT7cfikUMVf0TiaB3-9" value="具体业务&lt;br&gt;（调用batch方法）" style="rounded=0;whiteSpace=wrap;html=1;fillColor=#ffe6cc;strokeColor=#d79b00;" parent="1" vertex="1">
          <mxGeometry x="220" y="80" width="110" height="40" as="geometry" />
        </mxCell>
        <mxCell id="tYzVT7cfikUMVf0TiaB3-12" style="edgeStyle=orthogonalEdgeStyle;rounded=0;orthogonalLoop=1;jettySize=auto;html=1;exitX=0.5;exitY=1;exitDx=0;exitDy=0;entryX=0.5;entryY=0;entryDx=0;entryDy=0;" parent="1" source="tYzVT7cfikUMVf0TiaB3-10" target="tYzVT7cfikUMVf0TiaB3-2" edge="1">
          <mxGeometry relative="1" as="geometry" />
        </mxCell>
        <mxCell id="tYzVT7cfikUMVf0TiaB3-10" value="具体业务&lt;br&gt;（实现operate方法）" style="rounded=0;whiteSpace=wrap;html=1;fillColor=#ffe6cc;strokeColor=#d79b00;" parent="1" vertex="1">
          <mxGeometry x="470" y="80" width="120" height="40" as="geometry" />
        </mxCell>
        <mxCell id="tYzVT7cfikUMVf0TiaB3-21" value="消息通知&lt;br&gt;飞书、邮件" style="rounded=0;whiteSpace=wrap;html=1;fillColor=#fff2cc;strokeColor=#d6b656;" parent="1" vertex="1">
          <mxGeometry x="710" y="320" width="100" height="50" as="geometry" />
        </mxCell>
        <mxCell id="9kXufSpEmj1Cwfu2eiG1-2" value="" style="html=1;shadow=0;dashed=0;align=center;verticalAlign=middle;shape=mxgraph.arrows2.arrow;dy=0.6;dx=40;notch=0;" parent="1" vertex="1">
          <mxGeometry x="640" y="325" width="60" height="40" as="geometry" />
        </mxCell>
        <mxCell id="Nj-zl86IRzAddf7fwF8F-2" value="&lt;b&gt;&lt;font style=&quot;font-size: 14px;&quot;&gt;批量操作组件&lt;/font&gt;&lt;/b&gt;" style="text;html=1;align=center;verticalAlign=middle;resizable=0;points=[];autosize=1;strokeColor=none;fillColor=none;" vertex="1" parent="1">
          <mxGeometry x="160" y="140" width="110" height="30" as="geometry" />
        </mxCell>
      </root>
    </mxGraphModel>
  </diagram>
</mxfile>
